<svg id="Capa_1" enable-background="new 0 0 512 512" height="512" viewBox="0 0 512 512" width="512" xmlns="http://www.w3.org/2000/svg"><g><path d="m453.487 271h-394.477l-23.811 165.128c-2.752 19.091 2.909 38.398 15.532 52.973 12.606 14.552 30.873 22.899 50.116 22.899h307.597c19.002 0 37.117-8.174 49.7-22.425 12.601-14.272 18.475-33.297 16.115-52.196zm-92.418 165.75c-.363-8.101 7.154-15 15-15 8.409 0 14.636 6.873 15 15 .363 8.101-7.154 15-15 15-8.409 0-14.636-6.873-15-15zm49.808-60.25c.363 8.101-7.154 15-15 15-8.409 0-14.636-6.873-15-15-.363-8.101 7.154-15 15-15 8.409 0 14.636 6.873 15 15zm-38.921-75.25c8.409 0 14.636 6.873 15 15 .363 8.101-7.154 15-15 15-8.409 0-14.636-6.873-15-15-.362-8.101 7.154-15 15-15zm-19.201 75.25c.363 8.101-7.154 15-15 15-8.409 0-14.636-6.873-15-15-.363-8.101 7.154-15 15-15 8.409 0 14.636 6.873 15 15zm-38.921-75.25c8.409 0 14.636 6.873 15 15 .363 8.101-7.154 15-15 15-8.409 0-14.636-6.873-15-15-.362-8.101 7.154-15 15-15zm-19.201 75.25c.363 8.101-7.154 15-15 15-8.409 0-14.636-6.873-15-15-.363-8.101 7.154-15 15-15 8.409 0 14.636 6.873 15 15zm-38.92-75.25c8.409 0 14.636 6.873 15 15 .363 8.101-7.154 15-15 15-8.409 0-14.636-6.873-15-15-.363-8.101 7.153-15 15-15zm-19.202 75.25c.363 8.101-7.154 15-15 15-8.409 0-14.636-6.873-15-15-.363-8.101 7.154-15 15-15 8.409 0 14.636 6.873 15 15zm-38.92-75.25c8.409 0 14.636 6.873 15 15 .363 8.101-7.154 15-15 15-8.409 0-14.636-6.873-15-15-.363-8.101 7.154-15 15-15zm-2.057 120.5h15.036 105.32c8.409 0 14.636 6.873 15 15 .363 8.101-7.154 15-15 15-5.012 0-10.024 0-15.036 0-35.107 0-70.214 0-105.32 0-8.409 0-14.636-6.873-15-15-.362-8.101 7.154-15 15-15zm-17.145-45.25c.363 8.101-7.154 15-15 15-8.409 0-14.636-6.873-15-15-.363-8.101 7.154-15 15-15 8.409 0 14.636 6.873 15 15zm-38.92-75.25c8.409 0 14.636 6.873 15 15 .363 8.101-7.154 15-15 15-8.409 0-14.636-6.873-15-15-.363-8.101 7.154-15 15-15zm-4.113 120.5c8.409 0 14.636 6.873 15 15 .363 8.101-7.154 15-15 15-8.409 0-14.636-6.873-15-15-.363-8.101 7.154-15 15-15zm-30.089-60.25c8.409 0 14.636 6.873 15 15 .363 8.101-7.154 15-15 15-8.409 0-14.636-6.873-15-15-.363-8.101 7.154-15 15-15z"/><path d="m421.158 180.75v-165.75c0-8.284-6.716-15-15-15h-300.89c-8.284 0-15 6.716-15 15v165.75zm-90.222-40.25h-150.446c-8.284 0-15-6.716-15-15s6.716-15 15-15h150.445c8.284 0 15 6.716 15 15s-6.715 15-14.999 15zm0-60.25h-150.446c-8.284 0-15-6.716-15-15s6.716-15 15-15h150.445c8.284 0 15 6.716 15 15s-6.715 15-14.999 15z"/><path d="m497 180.75c-8.284 0-15 6.716-15 15v15.125h-452v-15.125c0-8.284-6.716-15-15-15s-15 6.716-15 15v60.25c0 8.284 6.716 15 15 15s15-6.716 15-15v-15.125h452v15.125c0 8.284 6.716 15 15 15s15-6.716 15-15v-60.25c0-8.284-6.716-15-15-15z"/></g></svg>